<svg width="20" height="24" viewBox="0 0 20 24" fill="none" xmlns="http://www.w3.org/2000/svg">
<path d="M0.75 17.5487V10.7244C0.75 6.02245 0.75 3.67145 2.06802 2.21072C3.38604 0.75 5.50736 0.75 9.75 0.75C13.9926 0.75 16.114 0.75 17.432 2.21072C18.75 3.67145 18.75 6.02245 18.75 10.7244V17.5487C18.75 20.5328 18.75 22.0248 17.8805 22.5588C16.1968 23.593 13.0386 20.1426 11.5387 19.1037C10.6689 18.5012 10.234 18.1999 9.75 18.1999C9.26603 18.1999 8.83111 18.5012 7.96125 19.1037C6.4614 20.1426 3.30315 23.593 1.61945 22.5588C0.75 22.0248 0.75 20.5328 0.75 17.5487Z" stroke="#4F8CFF" stroke-width="1.5" stroke-linecap="round" stroke-linejoin="round"/>
</svg>
